<?xml version="1.0" encoding="UTF-8" standalone="no"?>
<svg width="245px" height="134px" viewBox="0 0 245 134" version="1.1" xmlns="http://www.w3.org/2000/svg" xmlns:xlink="http://www.w3.org/1999/xlink">
    <!-- Generator: Sketch 44 (41411) - http://www.bohemiancoding.com/sketch -->
    <title>KIN logo</title>
    <desc>Created with Sketch.</desc>
    <defs>
        <polygon id="path-1" points="0 4.05660377 0 1.56822108e-14 4.04958678 0 4.04958678 4.05660377 1.09113293e-16 4.05660377"></polygon>
        <polygon id="path-3" points="4.04958678 4.05660377 1.56550842e-14 4.05660377 0 0 4.04958678 0 4.04958678 4.05660377"></polygon>
        <polygon id="path-5" points="0 135.896226 245 135.896226 245 0 0 0"></polygon>
    </defs>
    <g id="Page-1" stroke="none" stroke-width="1" fill="none" fill-rule="evenodd">
        <g id="Desktop" transform="translate(-252.000000, -48.000000)">
            <g id="Group-15" transform="translate(0.000000, -293.000000)">
                <g id="KIN-logo" transform="translate(252.000000, 341.000000)">
                    <path d="M95.6962099,48.6792453 L87.0661157,48.6792453 L87.0661157,40.0333319 C87.0661157,36.966619 89.5484735,34.4811321 92.6095753,34.4811321 L95.6962099,34.4811321 C98.7573116,34.4811321 101.239669,36.966619 101.239669,40.0333319 L101.239669,43.1256244 C101.239669,46.1923373 98.7573116,48.6792453 95.6962099,48.6792453 Z" id="Fill-1" fill="#005FFF"></path>
                    <path d="M46.5702479,48.6792453 L37.93929,48.6792453 C34.8778818,48.6792453 32.3966942,46.1923373 32.3966942,43.1256244 L32.3966942,40.0333319 C32.3966942,36.966619 34.8778818,34.4811321 37.93929,34.4811321 L41.0262335,34.4811321 C44.0876417,34.4811321 46.5702479,36.966619 46.5702479,40.0333319 L46.5702479,48.6792453 Z" id="Fill-3" fill="#005FFF"></path>
                    <path d="M41.0267884,101.415094 L37.9401538,101.415094 C34.879052,101.415094 32.3966942,98.9281863 32.3966942,95.8614734 L32.3966942,92.7691809 C32.3966942,89.7024681 34.879052,87.2169811 37.9401538,87.2169811 L46.5702479,87.2169811 L46.5702479,95.8614734 C46.5702479,98.9281863 44.0878901,101.415094 41.0267884,101.415094" id="Fill-5" fill="#005FFF"></path>
                    <path d="M95.6962099,101.415094 L92.6095753,101.415094 C89.5484735,101.415094 87.0661157,98.9281863 87.0661157,95.8614734 L87.0661157,87.2169811 L95.6962099,87.2169811 C98.7573116,87.2169811 101.239669,89.7024681 101.239669,92.7691809 L101.239669,95.8614734 C101.239669,98.9281863 98.7573116,101.415094 95.6962099,101.415094" id="Fill-7" fill="#005FFF"></path>
                    <path d="M69.3738958,34.4811321 L66.2872612,34.4811321 C63.2261594,34.4811321 60.7438017,31.994224 60.7438017,28.9275112 L60.7438017,25.8352187 C60.7438017,22.7685058 63.2261594,20.2830189 66.2872612,20.2830189 L69.3738958,20.2830189 C72.4349976,20.2830189 74.9173554,22.7685058 74.9173554,25.8352187 L74.9173554,28.9275112 C74.9173554,31.994224 72.4349976,34.4811321 69.3738958,34.4811321" id="Fill-9" fill="#00CCEE"></path>
                    <path d="M69.3738958,115.613208 L66.2872612,115.613208 C63.2261594,115.613208 60.7438017,113.1263 60.7438017,110.059587 L60.7438017,106.967294 C60.7438017,103.900581 63.2261594,101.415094 66.2872612,101.415094 L69.3738958,101.415094 C72.4349976,101.415094 74.9173554,103.900581 74.9173554,106.967294 L74.9173554,110.059587 C74.9173554,113.1263 72.4349976,115.613208 69.3738958,115.613208" id="Fill-11" fill="#00CCEE"></path>
                    <path d="M109.869764,75.0471698 L106.783129,75.0471698 C103.722027,75.0471698 101.239669,72.5602618 101.239669,69.4935489 L101.239669,66.4012564 C101.239669,63.3345435 103.722027,60.8490566 106.783129,60.8490566 L109.869764,60.8490566 C112.930865,60.8490566 115.413223,63.3345435 115.413223,66.4012564 L115.413223,69.4935489 C115.413223,72.5602618 112.930865,75.0471698 109.869764,75.0471698" id="Fill-13" fill="#00CCEE"></path>
                    <path d="M28.878028,75.0471698 L25.7913934,75.0471698 C22.7302917,75.0471698 20.2479339,72.5602618 20.2479339,69.4935489 L20.2479339,66.4012564 C20.2479339,63.3345435 22.7302917,60.8490566 25.7913934,60.8490566 L28.878028,60.8490566 C31.9391298,60.8490566 34.4214876,63.3345435 34.4214876,66.4012564 L34.4214876,69.4935489 C34.4214876,72.5602618 31.9391298,75.0471698 28.878028,75.0471698" id="Fill-15" fill="#00CCEE"></path>
                    <path d="M83.3255456,121.221852 C82.4702213,119.152406 83.4514752,116.780724 85.5162231,115.922722 C87.5822178,115.065969 89.9511918,116.048862 90.806516,118.118308 C91.6618403,120.187753 90.6818332,122.559436 88.6158385,123.416189 C86.5498438,124.274191 84.1808699,123.291298 83.3255456,121.221852" id="Fill-17" fill="#005FFF"></path>
                    <path d="M40.8048844,17.7784556 C39.9495601,15.7090099 40.9308141,13.3373277 42.9955619,12.4793257 C45.0615566,11.6225727 47.4305306,12.6054658 48.2858549,14.6749115 C49.1411792,16.7443572 48.161172,19.1160394 46.0951774,19.9727925 C44.0291827,20.8307944 41.6602087,19.8479013 40.8048844,17.7784556" id="Fill-19" fill="#005FFF"></path>
                    <path d="M118.987372,50.3979951 C116.921506,51.2548014 114.553927,50.2718472 113.697409,48.2035216 C112.842138,46.133947 113.823331,43.7608682 115.889197,42.9040618 C117.955063,42.0472554 120.322642,43.0289607 121.177914,45.0985353 C122.034431,47.1681098 121.053238,49.5411887 118.987372,50.3979951" id="Fill-21" fill="#005FFF"></path>
                    <path d="M17.747703,92.9923347 C15.6818369,93.8491411 13.3142572,92.8661868 12.4577394,90.7978612 C11.6024683,88.7282867 12.5836612,86.3552078 14.6495272,85.4984014 C16.7153933,84.6415951 19.0829731,85.6233003 19.9382441,87.6928749 C20.7947619,89.7624495 19.813569,92.1355283 17.747703,92.9923347" id="Fill-23" fill="#005FFF"></path>
                    <path d="M115.888661,92.9923347 C113.822795,92.1355283 112.841602,89.7624495 113.69812,87.6928749 C114.553391,85.6233003 116.92097,84.6415951 118.986836,85.4984014 C121.052702,86.3552078 122.033895,88.7282867 121.178624,90.7978612 C120.322106,92.8661868 117.954527,93.8491411 115.888661,92.9923347" id="Fill-25" fill="#002DAE"></path>
                    <path d="M14.6489913,50.3979951 C12.5831252,49.5411887 11.6019323,47.1681098 12.4584501,45.0985353 C13.3137212,43.0289607 15.6813009,42.0472554 17.747167,42.9040618 C19.813033,43.7608682 20.7942259,46.133947 19.9389549,48.2035216 C19.0824371,50.2718472 16.7148573,51.2548014 14.6489913,50.3979951" id="Fill-27" fill="#002DAE"></path>
                    <path d="M90.8066858,17.7784556 C89.9513615,19.8479013 87.5823876,20.8307944 85.5163929,19.9727925 C83.4503982,19.1160394 82.4703911,16.7443572 83.3257154,14.6749115 C84.1810397,12.6054658 86.5500136,11.6225727 88.6160083,12.4793257 C90.6807562,13.3373277 91.6620101,15.7090099 90.8066858,17.7784556" id="Fill-29" fill="#002DAE"></path>
                    <path d="M48.2860247,121.221852 C47.4307004,123.291298 45.0617264,124.274191 42.9957317,123.416189 C40.929737,122.559436 39.9497299,120.187753 40.8050542,118.118308 C41.6603785,116.048862 44.0293525,115.065969 46.0953472,115.922722 C48.160095,116.780724 49.141349,119.152406 48.2860247,121.221852" id="Fill-31" fill="#002DAE"></path>
                    <path d="M109.93207,115.018953 C109.141101,114.226613 109.141101,112.943199 109.93207,112.150859 C110.723039,111.358519 112.004233,111.358519 112.795203,112.150859 C113.586172,112.943199 113.586172,114.226613 112.795203,115.018953 C112.004233,115.811293 110.723039,115.811293 109.93207,115.018953" id="Fill-33" fill="#0099C0"></path>
                    <path d="M18.8163675,23.7453677 C18.0253982,22.9530278 18.0253982,21.6696137 18.8163675,20.8772738 C19.6073368,20.0849339 20.8885309,20.0849339 21.6795003,20.8772738 C22.4704696,21.6696137 22.4704696,22.9530278 21.6795003,23.7453677 C20.8885309,24.5377076 19.6073368,24.5377076 18.8163675,23.7453677" id="Fill-35" fill="#0099C0"></path>
                    <path d="M112.795203,23.7453677 C112.004233,24.5377076 110.723039,24.5377076 109.93207,23.7453677 C109.141101,22.9530278 109.141101,21.6696137 109.93207,20.8772738 C110.723039,20.0849339 112.004233,20.0849339 112.795203,20.8772738 C113.586172,21.6696137 113.586172,22.9530278 112.795203,23.7453677" id="Fill-37" fill="#0099C0"></path>
                    <path d="M21.6795003,115.018953 C20.8885309,115.811293 19.6073368,115.811293 18.8163675,115.018953 C18.0253982,114.226613 18.0253982,112.943199 18.8163675,112.150859 C19.6073368,111.358519 20.8885309,111.358519 21.6795003,112.150859 C22.4704696,112.943199 22.4704696,114.226613 21.6795003,115.018953" id="Fill-39" fill="#0099C0"></path>
                    <path d="M131.61157,68.9622642 C130.493417,68.9622642 129.586777,68.0540528 129.586777,66.9339623 C129.586777,65.8138717 130.493417,64.9056604 131.61157,64.9056604 C132.729723,64.9056604 133.636364,65.8138717 133.636364,66.9339623 C133.636364,68.0540528 132.729723,68.9622642 131.61157,68.9622642" id="Fill-41" fill="#0029C0"></path>
                    <g id="Group-45" transform="translate(0.000000, 64.905660)">
                        <mask id="mask-2" fill="white">
                            <use xlink:href="#path-1"></use>
                        </mask>
                        <g id="Clip-44"></g>
                        <path d="M2.02479339,4.05660377 C0.906640347,4.05660377 0,3.14839243 0,2.02830189 C0,0.908211345 0.906640347,0 2.02479339,0 C3.14294643,0 4.04958678,0.908211345 4.04958678,2.02830189 C4.04958678,3.14839243 3.14294643,4.05660377 2.02479339,4.05660377" id="Fill-43" fill="#0029C0" mask="url(#mask-2)"></path>
                    </g>
                    <path d="M68.8429752,2.02830189 C68.8429752,3.14839243 67.9363349,4.05660377 66.8181818,4.05660377 C65.7000288,4.05660377 64.7933884,3.14839243 64.7933884,2.02830189 C64.7933884,0.908211345 65.7000288,0 66.8181818,0 C67.9363349,0 68.8429752,0.908211345 68.8429752,2.02830189" id="Fill-46" fill="#0029C0"></path>
                    <g id="Group-50" transform="translate(64.793388, 129.811321)">
                        <mask id="mask-4" fill="white">
                            <use xlink:href="#path-3"></use>
                        </mask>
                        <g id="Clip-49"></g>
                        <path d="M4.04958678,2.02830189 C4.04958678,3.14839243 3.14294643,4.05660377 2.02479339,4.05660377 C0.906640347,4.05660377 0,3.14839243 0,2.02830189 C0,0.908211345 0.906640347,0 2.02479339,0 C3.14294643,0 4.04958678,0.908211345 4.04958678,2.02830189" id="Fill-48" fill="#0029C0" mask="url(#mask-4)"></path>
                    </g>
                    <path d="M157.933884,52.7358491 L161.959109,52.7358491 L161.959109,68.7976747 C161.959109,70.4394444 164.029889,71.2464384 165.206936,70.0624063 L182.445189,52.7358491 L187.643354,52.7358491 L174.927148,65.2733601 C173.458578,66.7219804 173.335398,69.0014076 174.641099,70.5902597 L188.305785,87.2169811 L183.26091,87.2169811 L172.460826,74.0590108 C170.914242,72.1764658 168.014054,72.0256506 166.267646,73.7362132 L163.300394,76.6427144 C162.440877,77.4841048 161.959109,78.6191881 161.959109,79.8018973 L161.959109,87.2169811 L157.933884,87.2169811 L157.933884,52.7358491 Z" id="Fill-51" fill="#003EC5"></path>
                    <mask id="mask-6" fill="white">
                        <use xlink:href="#path-5"></use>
                    </mask>
                    <g id="Clip-54"></g>
                    <polygon id="Fill-53" fill="#003EC5" mask="url(#mask-6)" points="196.404959 87.2169811 200.454545 87.2169811 200.454545 52.7358491 196.404959 52.7358491"></polygon>
                    <path d="M214.628099,52.7358491 L218.42562,52.7358491 L237.87207,76.4866073 C238.916526,77.7619224 241.050909,77.054149 241.050909,75.4309005 L241.050909,52.7358491 L245,52.7358491 L245,87.2169811 L241.7688,87.2169811 L221.757408,62.8166588 C220.711574,61.5426667 218.578568,62.2517631 218.578568,63.8736886 L218.578568,87.2169811 L214.628099,87.2169811 L214.628099,52.7358491 Z" id="Fill-55" fill="#003EC5" mask="url(#mask-6)"></path>
                    <path d="M80.3301104,60.172956 L83.3530586,60.172956 C85.4030883,60.172956 87.0661157,58.5071026 87.0661157,56.4535892 L87.0661157,46.6509434 L77.2814524,46.6509434 C75.2300695,46.6509434 73.5670421,48.3167968 73.5670421,50.3716656 L73.5670421,53.4119497 C73.5670421,57.1462264 70.5454471,60.172956 66.8175052,60.172956 C63.0909165,60.172956 60.0693216,57.1462264 60.0693216,53.4119497 L60.0693216,50.2374756 C60.0693216,48.2571568 58.465833,46.6509434 56.4888736,46.6509434 L46.5702479,46.6509434 L46.5702479,60.172956 L46.5702479,73.6949686 L46.5702479,87.2169811 L56.4144501,87.2169811 C58.4320041,87.2169811 60.0693216,85.5768814 60.0693216,83.5558989 L60.0693216,80.4559748 C60.0693216,76.7216981 63.0909165,73.6949686 66.8175052,73.6949686 L73.5670421,73.6949686 L73.5670421,73.7085231 L66.8175052,73.7085231 C70.5454471,73.7085231 73.5670421,76.7352527 73.5670421,80.4695294 L73.5670421,83.5260789 C73.5670421,85.5646823 75.2165379,87.2169811 77.251683,87.2169811 L87.0661157,87.2169811 L87.0661157,77.3858707 C87.0661157,75.3472674 85.4166198,73.6949686 83.3814748,73.6949686 L80.3165789,73.6949686 C76.588637,73.6949686 73.5670421,70.668239 73.5670421,66.9339623 L73.5670421,60.172956 L73.5805736,60.172956 L73.5805736,66.9339623 C73.5805736,63.1996855 76.6021686,60.172956 80.3301104,60.172956" id="Fill-56" fill="#003EC5" mask="url(#mask-6)"></path>
                </g>
            </g>
        </g>
    </g>
</svg>